<svg width="25" height="24" viewBox="0 0 25 24" fill="none" xmlns="http://www.w3.org/2000/svg">
<path d="M7.5585 18.0938L6.99236 18.5L7.5585 18.9062C8.94934 19.9042 10.6504 20.5 12.5 20.5C14.3496 20.5 16.0507 19.9042 17.4415 18.9062L18.0076 18.5L17.4415 18.0938C16.0507 17.0958 14.3496 16.5 12.5 16.5C10.6504 16.5 8.94934 17.0958 7.5585 18.0938ZM18.3322 17.514L18.7137 17.812L19.0239 17.4404C20.2554 15.9646 21 14.0724 21 12C21 7.30386 17.1961 3.5 12.5 3.5C7.80386 3.5 4 7.30386 4 12C4 14.0724 4.74456 15.9646 5.97612 17.4404L6.28628 17.812L6.66778 17.514C8.2743 16.2592 10.297 15.5 12.5 15.5C14.703 15.5 16.7257 16.2592 18.3322 17.514ZM3 12C3 6.75614 7.25614 2.5 12.5 2.5C17.7439 2.5 22 6.75614 22 12C22 17.2439 17.7439 21.5 12.5 21.5C7.25614 21.5 3 17.2439 3 12ZM9.5 9.5C9.5 7.84614 10.8461 6.5 12.5 6.5C14.1539 6.5 15.5 7.84614 15.5 9.5C15.5 11.1539 14.1539 12.5 12.5 12.5C10.8461 12.5 9.5 11.1539 9.5 9.5ZM10.5 9.5C10.5 10.6061 11.3939 11.5 12.5 11.5C13.6061 11.5 14.5 10.6061 14.5 9.5C14.5 8.39386 13.6061 7.5 12.5 7.5C11.3939 7.5 10.5 8.39386 10.5 9.5Z" fill="#0C0C0C" stroke="#5D4FC4"/>
</svg>
