<svg width="16" height="16" viewBox="0 0 16 16" fill="none" xmlns="http://www.w3.org/2000/svg">
<path d="M7.99967 1.33333C5.41967 1.33333 3.33301 3.42 3.33301 6C3.33301 9.5 7.99967 14.6667 7.99967 14.6667C7.99967 14.6667 12.6663 9.5 12.6663 6C12.6663 3.42 10.5797 1.33333 7.99967 1.33333ZM4.66634 6C4.66634 4.16 6.15967 2.66666 7.99967 2.66666C9.83967 2.66666 11.333 4.16 11.333 6C11.333 7.92 9.41301 10.7933 7.99967 12.5867C6.61301 10.8067 4.66634 7.89999 4.66634 6Z" fill="#0A453A"/>
<path d="M7.99967 7.66666C8.92015 7.66666 9.66634 6.92047 9.66634 6C9.66634 5.07952 8.92015 4.33333 7.99967 4.33333C7.0792 4.33333 6.33301 5.07952 6.33301 6C6.33301 6.92047 7.0792 7.66666 7.99967 7.66666Z" fill="#0A453A"/>
</svg>
